<?xml version="1.0" encoding="UTF-8"?>
<svg xmlns="http://www.w3.org/2000/svg" viewBox="0 0 800 500" font-family="Space Grotesk, system-ui, sans-serif">
  <defs>
    <marker id="arrow2" markerWidth="8" markerHeight="8" refX="7" refY="3" orient="auto" markerUnits="strokeWidth">
      <path d="M0,0 L0,6 L7,3 z" fill="#1565c0"/>
    </marker>
    <marker id="arrowne" markerWidth="10" markerHeight="10" refX="9" refY="3" orient="auto" markerUnits="strokeWidth">
      <path d="M0,0 L0,6 L9,3 z" fill="#d73027"/>
    </marker>
  </defs>

  <rect width="800" height="500" fill="#fafafa"/>

  <text x="400" y="30" text-anchor="middle" font-size="18" font-weight="600" fill="#171717">AOI · Öckerö-skärgården, norra Göteborg</text>
  <text x="400" y="50" text-anchor="middle" font-size="12" fill="#6b7280">5 × 5 km kring 57.71818°N, 11.66559°E (sundet mellan Öckerö och Björkö, ~6 km SW om Säve)</text>

  <!-- Sweden outline simplification -->
  <g stroke="#171717" stroke-width="1" fill="#e5e7eb">
    <path d="M 360 90
             L 380 100 L 395 130 L 410 165
             L 425 195 L 435 230 L 440 260
             L 445 290 L 450 320 L 460 350
             L 470 380 L 475 410
             L 480 440
             L 460 445 L 440 440
             L 420 430 L 400 410
             L 380 380 L 365 350
             L 350 320 L 340 290
             L 332 260 L 328 230
             L 330 200 L 340 170
             L 348 140 L 355 110 Z"/>
  </g>
  <text x="430" y="200" font-size="10" fill="#6b7280">Sverige</text>

  <!-- Göteborg location marker -->
  <line x1="395" y1="365" x2="280" y2="380" stroke="#171717" stroke-width="0.7" stroke-dasharray="3,2"/>
  <circle cx="395" cy="365" r="3" fill="#d73027"/>
  <text x="395" y="380" font-size="9" fill="#171717">Göteborg</text>

  <!-- Inset zoom map of AOI: Öckerö-Björkö-sundet, Säve ~6 km NE -->
  <g transform="translate(100, 200)">
    <rect width="280" height="240" fill="#fff" stroke="#171717" stroke-width="1.5"/>
    <text x="140" y="20" text-anchor="middle" font-size="12" font-weight="600" fill="#171717">5 × 5 km AOI · Öckerö skärgård</text>

    <!-- Water (Kattegatt västerut + sundet) -->
    <rect x="10" y="30" width="260" height="180" fill="#a4c8d9"/>

    <!-- Hisingen (NÖ) — landmassa övre höger -->
    <path d="M 200 30 L 270 30 L 270 130 L 250 140 L 220 145 L 200 130 Z" fill="#c8d6b9"/>
    <text x="240" y="80" font-size="9" fill="#3a4a2a">Hisingen</text>

    <!-- Björkö (mellan AOI och Hisingen) -->
    <ellipse cx="180" cy="100" rx="22" ry="12" fill="#c8d6b9" stroke="#3a4a2a" stroke-width="0.5"/>
    <text x="180" y="103" text-anchor="middle" font-size="8" fill="#3a4a2a">Björkö</text>

    <!-- Öckerö (söder/SW om AOI) -->
    <ellipse cx="115" cy="135" rx="28" ry="14" fill="#c8d6b9" stroke="#3a4a2a" stroke-width="0.5"/>
    <text x="115" y="138" text-anchor="middle" font-size="8" fill="#3a4a2a">Öckerö</text>

    <!-- Hönö (SW om Öckerö) -->
    <ellipse cx="65" cy="155" rx="22" ry="12" fill="#c8d6b9" stroke="#3a4a2a" stroke-width="0.5"/>
    <text x="65" y="158" text-anchor="middle" font-size="8" fill="#3a4a2a">Hönö</text>

    <!-- Säve flygfält ~6 km NE av AOI -->
    <line x1="225" y1="65" x2="245" y2="55" stroke="#3a3a3a" stroke-width="2.5"/>
    <text x="260" y="60" font-size="9" fill="#3a3a3a">Säve (ESGP)</text>

    <!-- AOI center: i sundet -->
    <circle cx="148" cy="113" r="6" fill="#d73027" stroke="#fff" stroke-width="2"/>
    <circle cx="148" cy="113" r="14" fill="none" stroke="#d73027" stroke-width="1.2" opacity="0.6"/>
    <text x="148" y="170" text-anchor="middle" font-size="10" font-weight="600" fill="#171717">57.71818°N</text>
    <text x="148" y="183" text-anchor="middle" font-size="10" font-weight="600" fill="#171717">11.66559°E</text>
    <text x="148" y="196" text-anchor="middle" font-size="9" fill="#d73027">AOI · contrail</text>

    <!-- Inferred plane heading 051° (NÖ) -->
    <line x1="148" y1="113" x2="200" y2="80" stroke="#d73027" stroke-width="2" stroke-dasharray="4,2" marker-end="url(#arrowne)"/>
    <text x="195" y="98" font-size="9" fill="#d73027" font-weight="600">heading 051°</text>

    <!-- Scale bar -->
    <line x1="20" y1="220" x2="60" y2="220" stroke="#171717" stroke-width="2"/>
    <text x="40" y="215" text-anchor="middle" font-size="8" fill="#171717">1 km</text>

    <!-- S2 ground track direction (descending, ~196° SSV) -->
    <line x1="250" y1="190" x2="240" y2="35" stroke="#1565c0" stroke-width="1" stroke-dasharray="3,3" marker-end="url(#arrow2)"/>
    <text x="248" y="125" font-size="8" fill="#1565c0" opacity="0.8">S2 along-track 196°</text>
  </g>

  <!-- Right column: identified flight -->
  <g transform="translate(420, 200)">
    <rect width="300" height="240" fill="#fff" stroke="#d1d5db"/>
    <text x="20" y="30" font-size="13" font-weight="600" fill="#171717">Identifierad flygning</text>

    <text x="20" y="60" font-size="11" fill="#6b7280">Callsign · Aircraft</text>
    <text x="20" y="76" font-size="13" fill="#171717">SWE32A · Pilatus PC-24</text>

    <text x="20" y="100" font-size="11" fill="#6b7280">Registrering</text>
    <text x="20" y="116" font-size="13" fill="#171717">SE-RVE (icao24 4acac5)</text>

    <text x="20" y="140" font-size="11" fill="#6b7280">Rutt</text>
    <text x="20" y="156" font-size="13" fill="#171717">Säve (ESGP) → Västerås (ESOW)</text>

    <text x="20" y="180" font-size="11" fill="#6b7280">Tidsfönster</text>
    <text x="20" y="196" font-size="13" fill="#171717">10:32:36 → 11:08:43 UTC</text>

    <text x="20" y="220" font-size="11" fill="#6b7280">AOI-passage</text>
    <text x="20" y="236" font-size="13" fill="#171717">10:43:19 UTC · ~5–8 km i climb</text>
  </g>

  <text x="400" y="475" text-anchor="middle" font-size="11" fill="#6b7280">Source: OpenSky `/flights/aircraft?icao24=4acac5` + Sentinel-2 SAFE S2B_MSIL1C_20260111T104319_N0511_R008_T32VPK</text>
</svg>
