<?xml version="1.0" encoding="UTF-8"?>
<svg xmlns="http://www.w3.org/2000/svg" viewBox="0 0 800 500" font-family="Space Grotesk, system-ui, sans-serif">
  <defs>
    <marker id="arrow" markerWidth="10" markerHeight="10" refX="9" refY="3" orient="auto" markerUnits="strokeWidth">
      <path d="M0,0 L0,6 L9,3 z" fill="#171717"/>
    </marker>
  </defs>

  <rect width="800" height="500" fill="#fafafa"/>

  <!-- Title -->
  <text x="400" y="30" text-anchor="middle" font-size="18" font-weight="600" fill="#171717">Push-broom MSI fokalplan — varför banden registreras vid olika tidpunkter</text>

  <!-- Satellite -->
  <rect x="320" y="70" width="160" height="60" fill="#245045" stroke="#171717" stroke-width="2" rx="4"/>
  <text x="400" y="95" text-anchor="middle" font-size="13" font-weight="600" fill="#fff">Sentinel-2 MSI</text>
  <text x="400" y="115" text-anchor="middle" font-size="11" fill="#fff">786 km · 6.7 km/s ground-track</text>

  <!-- Velocity arrow on satellite -->
  <line x1="490" y1="100" x2="560" y2="100" stroke="#171717" stroke-width="2" marker-end="url(#arrow)"/>
  <text x="525" y="92" text-anchor="middle" font-size="11" fill="#171717">v_sat</text>

  <!-- Focal plane detail box -->
  <rect x="100" y="170" width="600" height="100" fill="#ffffff" stroke="#d1d5db" stroke-width="1" rx="3"/>
  <text x="120" y="195" font-size="12" fill="#6b7280">Fokalplan (schematiskt — band-detektorer åtskilda along-track)</text>

  <!-- Detector rows -->
  <rect x="160" y="210" width="100" height="22" fill="#003366" rx="2"/>
  <text x="210" y="226" text-anchor="middle" font-size="11" font-weight="600" fill="#fff">B02 · 490 nm</text>

  <rect x="290" y="210" width="100" height="22" fill="#1a9850" rx="2"/>
  <text x="340" y="226" text-anchor="middle" font-size="11" font-weight="600" fill="#fff">B03 · 560 nm</text>

  <rect x="420" y="210" width="100" height="22" fill="#d73027" rx="2"/>
  <text x="470" y="226" text-anchor="middle" font-size="11" font-weight="600" fill="#fff">B04 · 665 nm</text>

  <rect x="550" y="210" width="100" height="22" fill="#4a148c" rx="2"/>
  <text x="600" y="226" text-anchor="middle" font-size="11" font-weight="600" fill="#fff">B08 · 842 nm (NIR)</text>

  <!-- Time arrow -->
  <line x1="160" y1="250" x2="650" y2="250" stroke="#171717" stroke-width="1.5" marker-end="url(#arrow)"/>
  <text x="160" y="263" text-anchor="start" font-size="10" fill="#6b7280">t₀</text>
  <text x="345" y="263" text-anchor="middle" font-size="10" fill="#6b7280">+0.5 s</text>
  <text x="475" y="263" text-anchor="middle" font-size="10" fill="#6b7280">+0.5 s</text>
  <text x="605" y="263" text-anchor="middle" font-size="10" fill="#6b7280">+1.0 s</text>
  <text x="650" y="263" text-anchor="end" font-size="10" fill="#6b7280">tid →</text>

  <!-- Ground track diagram -->
  <text x="400" y="310" text-anchor="middle" font-size="13" font-weight="600" fill="#171717">Markpunkten passerar varje detektor vid olika tidpunkt</text>

  <!-- Ground line -->
  <line x1="100" y1="410" x2="700" y2="410" stroke="#8B5A2B" stroke-width="2"/>
  <text x="120" y="425" font-size="11" fill="#8B5A2B">mark (Hisingen, 57.7°N)</text>

  <!-- Stationary point -->
  <circle cx="400" cy="410" r="6" fill="#171717"/>
  <text x="400" y="395" text-anchor="middle" font-size="11" fill="#171717">stationär punkt</text>
  <text x="400" y="445" text-anchor="middle" font-size="10" fill="#6b7280">samma position i alla band → ingen artefakt</text>

  <!-- Aircraft track -->
  <line x1="180" y1="380" x2="650" y2="380" stroke="#1565c0" stroke-width="2" stroke-dasharray="4,4" marker-end="url(#arrow)"/>
  <text x="160" y="383" text-anchor="end" font-size="11" fill="#1565c0">flygplan @ 290 m/s</text>

  <!-- Aircraft positions per band -->
  <circle cx="200" cy="380" r="5" fill="#003366"/>
  <text x="200" y="370" text-anchor="middle" font-size="9" fill="#003366">t₀ B02</text>

  <circle cx="345" cy="380" r="5" fill="#1a9850"/>
  <text x="345" y="370" text-anchor="middle" font-size="9" fill="#1a9850">+145 m B03</text>

  <circle cx="490" cy="380" r="5" fill="#d73027"/>
  <text x="490" y="370" text-anchor="middle" font-size="9" fill="#d73027">+290 m B04 ojämn</text>

  <circle cx="490" cy="380" r="0" fill="#d73027"/>
  <!-- Note: B03 and B04 are nearly simultaneous; B08 is ~1s after B02 -->

  <circle cx="635" cy="380" r="5" fill="#4a148c"/>
  <text x="635" y="370" text-anchor="middle" font-size="9" fill="#4a148c">+290 m B08</text>

  <text x="400" y="465" text-anchor="middle" font-size="11" fill="#6b7280">→ planet syns på olika position i varje band → "regnbågsstreck" i RGB-kompositen</text>
</svg>
